<?xml version="1.0" encoding="UTF-8"?>
<svg id="a" xmlns="http://www.w3.org/2000/svg" viewBox="0 0 780 256">
    <defs>
        <style>
            .b {
                letter-spacing: 0em;
            }

            .c {
                letter-spacing: 0em;
            }

            .d {
                opacity: .85;
            }

            .d,
            .e,
            .f {
                fill: #0576cd;
                stroke-width: 0px;
            }

            .g {
                letter-spacing: 0em;
            }

            .h {
                letter-spacing: -.02em;
            }

            .i {
                fill: #60c7e8;
                font-family: Vollda-Bold, Vollda;
                font-size: 109.43px;
                font-weight: 700;
            }

            .j {
                letter-spacing: -.04em;
            }

            .e {
                opacity: .81;
            }

            .f {
                opacity: .62;
            }
        </style>
    </defs><text class="i" transform="translate(274.43 160.28) scale(.86 1)">
        <tspan x="0" y="0">I</tspan>
        <tspan class="j" x="41.8" y="0">n</tspan>
        <tspan class="h" x="109" y="0">v</tspan>
        <tspan class="c" x="168.31" y="0">e</tspan>
        <tspan class="b" x="224.23" y="0">s</tspan>
        <tspan class="c" x="273.69" y="0">tSig</tspan>
        <tspan class="g" x="474.61" y="0">h</tspan>
        <tspan x="545.09" y="0">t</tspan>
    </text>
    <path class="d"
        d="M133.01,101.33v-26.54h-27.83l-12.09,2.77-9.58,3.69-13,6.81-14.15,8.42-13.69,10.39s-11.18,10.39-11.86,10.39-13,11.77-13,11.77l-11.64,12.7-6.16,7.16,6.39,8.77,7.99,9.69,6.62,7.39,8.67,8.08,10.95,10.62,12.55,10.39,14.6,9.46,12.78,7.62,13.46,5.31,11.86,2.77,16.43,2.08h18.71l7.53-1.85,9.81-2.54,9.58-3.46,8.67-4.15,8.9-4.85,8.21-5.31,7.3-6,7.3-7.16,6.62-7.85,5.48-7.16,5.93-8.08,4.33-7.16,3.42-7.62,3.19-7.62,1.14-3V0h-41.98l.23,151.42v8.31l-5.25,8.31-6.39,7.16-7.53,6.92-7.07,5.77-8.21,4.85-6.84,3.92-6.84,2.54-7.99,2.31-7.76.69h-9.13l-9.81-1.15-6.39-2.31-6.39-2.31-7.3-3.46-6.62-3.46-7.07-5.31-7.53-5.77-6.84-5.77-5.48-5.31-4.33-4.15-4.33-4.15-3.88-4.62-2.97-3.69-.46-1.85.91-2.08,3.42-3.23,5.25-4.62,6.62-5.08,2.97-2.77,5.25-4.39,6.39-4.39,5.25-3.92,4.33-2.89,5.02-2.89,5.48-2.54,5.48-3,4.11-1.38,5.48-2.31,4.79-.92,4.22-.69h10.84l2.97-.46Z" />
    <ellipse class="e" cx="122.17" cy="151.3" rx="26.58" ry="27.81" />
    <path class="f"
        d="M144.76,37.8h39.01v116.77c0,1.38.29,4.41-.86,7.48l-.65,1.1c-.85,1.44-.69,1.2-2.4,3.41-.05.06-.11.13-.17.18l-1.22,1.08-2.31,1.78c-.36.36-.74.69-1.14,1.01l-2.83,2.29-3.25,2.25-2.4,1.38,2.91-4.15,2.21-3.68c.12-.2.23-.41.31-.63l.05-.14c1.55-3.87,2.48-7.96,2.77-12.12h0s.06-4.6.06-4.6c.02-1.62-.1-3.24-.38-4.83l-.43-2.56-.6-3.19c-.15-.8-.37-1.59-.66-2.35l-1.73-4.57-2.62-5.02-2.05-3.87-4.11-5.42-3.25-4.15-4.11-3.81-4.11-2.6-3.76-2.6-2.28-1.21V37.8Z" />
</svg>